<svg id="Layer_5" enable-background="new 0 0 64 64" height="512" viewBox="0 0 64 64" width="512" xmlns="http://www.w3.org/2000/svg" xmlns:xlink="http://www.w3.org/1999/xlink"><linearGradient id="SVGID_1_" gradientUnits="userSpaceOnUse" x1="32" x2="32" y1="63" y2="1"><stop offset="0" stop-color="#9f2fff"/><stop offset="1" stop-color="#0bb1d3"/></linearGradient><path d="m47 55c0 2.206 1.794 4 4 4s4-1.794 4-4-1.794-4-4-4-4 1.794-4 4zm6 0c0 1.103-.897 2-2 2s-2-.897-2-2 .897-2 2-2 2 .897 2 2zm-44 0c0 2.206 1.794 4 4 4s4-1.794 4-4-1.794-4-4-4-4 1.794-4 4zm6 0c0 1.103-.897 2-2 2s-2-.897-2-2 .897-2 2-2 2 .897 2 2zm17-11c-2.206 0-4 1.794-4 4s1.794 4 4 4 4-1.794 4-4-1.794-4-4-4zm0 6c-1.103 0-2-.897-2-2s.897-2 2-2 2 .897 2 2-.897 2-2 2zm22.096-36.957c-.574-2.698-2.572-4.82-5.096-5.655v-1.388c0-2.757-2.243-5-5-5s-5 2.243-5 5v8.631 1.369h-14v-1.369-8.631c0-2.757-2.243-5-5-5s-5 2.243-5 5v1.388c-2.523.835-4.522 2.957-5.096 5.655l-8.633 40.578c-.173.437-.271.903-.271 1.379 0 .879.31 1.734.872 2.408l.519.623c2.448 2.938 5.969 4.69 9.757 4.922.28.03.564.047.852.047s.572-.017.852-.047c3.788-.233 7.309-1.984 9.757-4.922l.518-.622c.563-.675.873-1.53.873-2.409v-2.356c1.651 2.044 4.174 3.356 7 3.356s5.349-1.312 7-3.356v2.356c0 .879.31 1.734.872 2.408l.519.623c2.448 2.938 5.969 4.69 9.757 4.922.28.03.564.047.852.047s.572-.017.852-.047c3.788-.233 7.309-1.984 9.757-4.922l.518-.622c.563-.675.873-1.53.873-2.409 0-.476-.098-.942-.271-1.38zm2.904 41.957c0 3.092-2.352 5.644-5.36 5.965-.214.011-.425.035-.64.035s-.426-.024-.64-.035c-3.008-.321-5.36-2.873-5.36-5.965s2.352-5.644 5.36-5.965c.214-.011.425-.035.64-.035s.426.024.64.035c3.008.321 5.36 2.873 5.36 5.965zm-5.148-7.953c-.28-.03-.564-.047-.852-.047s-.572.017-.852.047c-3.491.215-6.741 1.731-9.148 4.268v-2.703c2.829-2.325 6.358-3.612 10-3.612 2.959 0 5.84.844 8.366 2.428l.622 2.922c-2.272-1.956-5.113-3.117-8.136-3.303zm-28.852-.819c-2.978-2.085-6.514-3.228-10.168-3.228-2.649 0-5.244.6-7.625 1.734l5.016-23.575c1.981-1.39 4.37-2.159 6.777-2.159 2.107 0 4.168.578 6 1.664v25.336zm-4 8.772c0 3.092-2.352 5.644-5.36 5.965-.214.011-.425.035-.64.035s-.426-.024-.64-.035c-3.008-.321-5.36-2.873-5.36-5.965s2.352-5.644 5.36-5.965c.214-.011.425-.035.64-.035s.426.024.64.035c3.008.321 5.36 2.873 5.36 5.965zm-5.148-7.953c-.28-.03-.564-.047-.852-.047s-.572.017-.852.047c-3.023.186-5.863 1.348-8.135 3.303l.649-3.05c2.474-1.5 5.288-2.3 8.17-2.3 3.724 0 7.313 1.335 10.168 3.749v2.566c-2.406-2.537-5.657-4.054-9.148-4.268zm11.148-25.047h14v18h-14zm16 24v-24.675c2.028-1.497 4.492-2.325 7-2.325 1.961 0 3.893.516 5.628 1.46l5.185 24.372c-2.432-1.199-5.093-1.832-7.813-1.832-3.577 0-7.055 1.103-10 3.115zm0-40c0-1.654 1.346-3 3-3s3 1.346 3 3v1.016c-.123-.006-.245-.016-.369-.016-2.231 0-4.235.968-5.631 2.499zm5.631 3c2.642 0 4.959 1.875 5.508 4.459l.964 4.533c-1.623-.649-3.354-.992-5.103-.992-2.46 0-4.882.682-7 1.931v-4.299c0-3.106 2.526-5.632 5.631-5.632zm-7.631 9v2h-14v-2zm-22-12c0-1.654 1.346-3 3-3s3 1.346 3 3v3.499c-1.396-1.531-3.4-2.499-5.631-2.499-.124 0-.246.01-.369.016zm.369 3c3.105 0 5.631 2.526 5.631 5.631v3.762c-1.874-.911-3.917-1.393-6-1.393-2.149 0-4.287.525-6.21 1.493l1.071-5.034c.549-2.584 2.867-4.459 5.508-4.459zm-13.441 47.75-.52-.623c-.25-.3-.384-.679-.398-1.069l.166-.782c.065-.142.131-.284.232-.405l.519-.623c.58-.696 1.232-1.312 1.937-1.848-.548 1.085-.864 2.305-.864 3.6s.316 2.515.865 3.598c-.706-.536-1.358-1.152-1.937-1.848zm18.663-.622-.519.623c-.58.696-1.232 1.312-1.937 1.848.549-1.084.865-2.304.865-3.599s-.316-2.515-.865-3.598c.705.536 1.357 1.152 1.937 1.848l.52.623c.262.315.408.715.408 1.127s-.146.812-.409 1.128zm9.409-2.128c-3.859 0-7-3.14-7-7v-1-4h14v4 1c0 3.86-3.141 7-7 7zm9.928 2.75-.52-.623c-.262-.315-.408-.715-.408-1.127s.146-.812.409-1.128l.519-.623c.58-.696 1.232-1.312 1.937-1.848-.549 1.084-.865 2.304-.865 3.599s.316 2.515.865 3.598c-.706-.536-1.358-1.152-1.937-1.848zm18.144 0c-.58.696-1.232 1.312-1.937 1.848.549-1.083.865-2.303.865-3.598s-.316-2.515-.865-3.598c.705.536 1.357 1.152 1.937 1.848l.52.623c.1.121.167.262.231.403l.167.783c-.013.39-.148.769-.399 1.069zm-28.072-32.75c-1.654 0-3 1.346-3 3v8c0 1.654 1.346 3 3 3s3-1.346 3-3v-8c0-1.654-1.346-3-3-3zm0 2c.552 0 1 .449 1 1v1h-2v-1c0-.551.448-1 1-1zm1 4v2h-2v-2zm-1 6c-.552 0-1-.449-1-1v-1h2v1c0 .551-.448 1-1 1zm11 0h2v2h-2zm0-4h2v2h-2zm0 8h2v2h-2zm-24-11h2v2h-2zm0-4h2v2h-2zm0-4h2v2h-2z" fill="url(#SVGID_1_)"/></svg>