<svg id="Layer_5" enable-background="new 0 0 64 64" height="512" viewBox="0 0 64 64" width="512" xmlns="http://www.w3.org/2000/svg" xmlns:xlink="http://www.w3.org/1999/xlink"><linearGradient id="SVGID_1_" gradientUnits="userSpaceOnUse" x1="32" x2="32" y1="63" y2="1"><stop offset="0" stop-color="#9f2fff"/><stop offset="1" stop-color="#0bb1d3"/></linearGradient><path d="m19 23c3.86 0 7-3.14 7-7s-3.14-7-7-7-7 3.14-7 7 3.14 7 7 7zm0-12c2.757 0 5 2.243 5 5s-2.243 5-5 5-5-2.243-5-5 2.243-5 5-5zm41 2h-5c-.551 0-1-.449-1-1v-5.757c0-1.713-.667-3.324-1.879-4.536-.456-.456-1.062-.707-1.707-.707-1.331 0-2.414 1.083-2.414 2.414v3.586c0 3.422-1.7 6.598-4.547 8.496-.495.33-1.07.504-1.664.504h-.789v-2h-9v-1.781l-2.416-.603 1.281-2.134-5.347-5.347-2.134 1.281-.603-2.416h-7.562l-.603 2.416-2.134-1.281-5.348 5.346 1.281 2.134-2.415.604v4.354c-3.219 3.365-5 7.754-5 12.427v.853c0 3.565 1.045 7.017 3.023 9.985l6.977 10.465v4.697c0 4.411 3.589 8 8 8s8-3.589 8-8v-4.697l6.977-10.466c1.577-2.366 2.55-5.043 2.884-7.837h4.139v-2h.764l.944.472c.407.204.845.343 1.292.429v21.335l4.658 9.316c.446.893 1.344 1.448 2.342 1.448s1.896-.555 2.342-1.447l4.658-9.317v-21.236h2c1.654 0 3-1.346 3-3 0-.771-.301-1.468-.78-2 .48-.532.78-1.229.78-2s-.301-1.468-.78-2c.48-.532.78-1.229.78-2s-.301-1.468-.78-2c.48-.532.78-1.229.78-2 0-1.654-1.346-3-3-3zm-52 .781 2.446-.611.502-1.222-1.295-2.157 3.138-3.138 2.158 1.296 1.222-.502.61-2.447h4.438l.611 2.446 1.222.502 2.158-1.296 3.138 3.138-1.296 2.158.502 1.222 2.446.611v4.438l-2.446.611-.503 1.22 1.296 2.16-3.138 3.138-2.158-1.296-1.222.502-.61 2.446h-4.438l-.611-2.446-1.222-.502-2.158 1.296-3.138-3.138 1.296-2.16-.5-1.219-2.448-.612zm5 37.219h12v2h-12zm2-16h-2c-1.103 0-2-.897-2-2s.897-2 2-2 2 .897 2 2zm6 14h-4v-12h4zm-2 12c-3.309 0-6-2.691-6-6h12c0 3.309-2.691 6-6 6zm16-31.147c0 3.168-.929 6.238-2.687 8.875l-6.848 10.272h-2.465v-12h2c2.206 0 4-1.794 4-4s-1.794-4-4-4-4 1.794-4 4v2h-4v-2c0-2.206-1.794-4-4-4s-4 1.794-4 4 1.794 4 4 4h2v12h-2.465l-6.848-10.271c-1.758-2.638-2.687-5.708-2.687-8.876v-.853c0-3.389 1.061-6.607 3-9.304v.086l2.416.603-1.281 2.134 5.347 5.347 2.134-1.281.603 2.415h7.562l.603-2.416 2.134 1.281 5.347-5.347-1.281-2.134 2.416-.603v-.086c1.939 2.698 3 5.916 3 9.304zm-12 5.147v-2c0-1.103.897-2 2-2s2 .897 2 2-.897 2-2 2zm16-5h-2.005c0-.049.005-.098.005-.147v-.853c0-4.672-1.78-9.064-5-12.428v-.572h7zm7 21v-20h4v20zm5.553 9.658c-.211.422-.895.422-1.105 0l-3.83-7.658h8.764zm4.447-9.658h-4v-20h4zm4-22h-15.056c-.463 0-.927-.109-1.342-.317l-1.366-.683h-1.236v-10h.789c.99 0 1.949-.291 2.773-.84 3.405-2.27 5.438-6.068 5.438-10.16v-3.586c0-.338.469-.532.707-.293.834.834 1.293 1.942 1.293 3.122v5.757c0 1.654 1.346 3 3 3h5c.551 0 1 .449 1 1s-.449 1-1 1h-3v2h3c.551 0 1 .449 1 1s-.449 1-1 1h-3v2h3c.551 0 1 .449 1 1s-.449 1-1 1h-3v2h3c.551 0 1 .449 1 1s-.449 1-1 1z" fill="url(#SVGID_1_)"/></svg>