<svg id="Layer_5" enable-background="new 0 0 64 64" height="512" viewBox="0 0 64 64" width="512" xmlns="http://www.w3.org/2000/svg" xmlns:xlink="http://www.w3.org/1999/xlink"><linearGradient id="SVGID_1_" gradientUnits="userSpaceOnUse" x1="32" x2="32" y1="63" y2="1"><stop offset="0" stop-color="#9f2fff"/><stop offset="1" stop-color="#0bb1d3"/></linearGradient><path d="m32 11c1.654 0 3-1.346 3-3s-1.346-3-3-3-3 1.346-3 3 1.346 3 3 3zm0-4c.551 0 1 .448 1 1s-.449 1-1 1-1-.448-1-1 .449-1 1-1zm3 16h-6v-2h2v-6h-2v-2h6v2h-2v6h2zm10-9c0-3.562-1.413-6.887-3.978-9.359-2.564-2.472-5.937-3.759-9.508-3.632-4.46.163-8.373 2.663-10.589 6.272-.977-.171-1.958-.281-2.925-.281-9.374 0-17 7.626-17 17 0 7.994 5.553 14.699 13 16.505v3.275c-.609.549-1 1.337-1 2.22v12c0 2.757 2.243 5 5 5s5-2.243 5-5v-12c0-.883-.391-1.67-1-2.22v-3.272c1.79-.432 3.476-1.137 5-2.089v24.581h36v-40h-21.639c2.249-2.338 3.639-5.507 3.639-9zm-13.412-10.993c3.012-.103 5.877.982 8.046 3.073 2.171 2.093 3.366 4.905 3.366 7.92 0 6.065-4.935 11-11 11l-12.117 2h-.469c-.228 0-.414-.186-.414-.414 0-.109.044-.216.121-.293l4.795-4.794-.55-.698c-1.549-1.964-2.367-4.318-2.366-6.807.003-5.845 4.753-10.773 10.588-10.987zm1.412 31.993v-3.004c.504-.947.923-1.948 1.243-2.996h22.757v6zm-11.734-13.68-3.559 3.558c-.449.449-.707 1.071-.707 1.708 0 1.331 1.083 2.414 2.414 2.414h.469c.133 0 .265-.012.397-.033l8.099-1.349c-1.517 4.351-5.663 7.382-10.379 7.382-6.065 0-11-4.935-11-11s4.935-11 11-11c.344 0 .692.022 1.048.058-.023.31-.048.619-.048.934-.001 2.646.779 5.161 2.266 7.328zm-18.266 2.68c0-8.271 6.729-15 15-15 .649 0 1.306.06 1.964.148-.256.623-.455 1.272-.612 1.935-.457-.05-.908-.083-1.352-.083-7.168 0-13 5.832-13 13s5.832 13 13 13c5.935 0 11.108-4.062 12.575-9.749l1.509-.251c.205-.001.405-.024.607-.035-1.386 6.942-7.491 12.035-14.691 12.035-8.271 0-15-6.729-15-15zm18 34c0 1.654-1.346 3-3 3s-3-1.346-3-3v-12c0-.552.449-1 1-1h4c.551 0 1 .448 1 1zm-1-15h-4v-2.128c.657.077 1.322.128 2 .128.677 0 1.342-.053 2-.131zm41 18h-32v-24.053c.722-.614 1.389-1.288 2-2.014v2.067h13v6h-8v6h-5v10h12v-10h-5v-4h15v4.101c-2.279.465-4 2.484-4 4.899 0 2.757 2.243 5 5 5s5-2.243 5-5c0-2.414-1.721-4.434-4-4.899v-6.101h-9v-6h13v-10h-24.29c.018-.099.032-.198.048-.298 1.492-.324 2.883-.913 4.137-1.702h22.105zm-20-10v6h-8v-6zm13 0c1.654 0 3 1.346 3 3s-1.346 3-3 3-3-1.346-3-3 1.346-3 3-3zm-41-28h2v2h-2zm-4 0h2v2h-2zm28.626-1.975-1.251-1.561c1.668-1.336 2.625-3.328 2.625-5.464h2c0 2.746-1.23 5.307-3.374 7.025z" fill="url(#SVGID_1_)"/></svg>