<svg id="Layer_5" enable-background="new 0 0 64 64" height="512" viewBox="0 0 64 64" width="512" xmlns="http://www.w3.org/2000/svg" xmlns:xlink="http://www.w3.org/1999/xlink"><linearGradient id="SVGID_1_" gradientUnits="userSpaceOnUse" x1="32" x2="32" y1="63" y2="1"><stop offset="0" stop-color="#9f2fff"/><stop offset="1" stop-color="#0bb1d3"/></linearGradient><path d="m63 25.242c0-2.89-2.352-5.242-5.242-5.242-1.4 0-2.717.545-3.707 1.535l-15.051 15.051v-.552c0-3.074-1.591-5.884-4.073-7.52 1.137-1.003 1.817-1.844 1.855-1.889l.645-.806-.826-.619c-2.255-1.691-3.601-4.383-3.601-7.2v-5c0-6.617-5.383-12-12-12s-12 5.383-12 12v5c0 2.817-1.346 5.509-3.601 7.2l-.922.691.815.815c.042.042.792.787 1.938 1.706-2.571 1.621-4.23 4.483-4.23 7.622v.966h-2v26h62v-26h-3.586l.672-.672c.581-.581.914-1.385.914-2.207 0-1.271-.766-2.362-1.858-2.849l2.323-2.323c.99-.99 1.535-2.306 1.535-3.707zm-25 24.344-4.586-4.586 15.586-15.586 4.586 4.586-3.672 3.672zm-5.563-2.735 3.712 3.712-4.198 1.399c-.464.155-.951-.209-.951-.683 0-.076.013-.156.036-.228zm-24.926-20.816c2.203-2.065 3.489-4.99 3.489-8.035v-5c0-5.514 4.486-10 10-10s10 4.486 10 10v5c0 3.078 1.314 6.033 3.562 8.103-.386.397-.934.915-1.594 1.441-.164-.057-.326-.116-.494-.164l-7.474-2.134v-1.682c2.505-2.331 4-5.628 4-9.181v-2.798l-2.803-2.803-.645.322c-2.478 1.241-5.253 1.896-8.024 1.896h-1.528c-1.654 0-3 1.346-3 3v.384c0 3.552 1.495 6.85 4 9.181v1.682l-7.473 2.133c-.085.024-.166.056-.25.083-.705-.522-1.32-1.033-1.766-1.428zm15.489-.368-2 2.666-2-2.666v-.58c.51.312 1.046.591 1.606.831l.394.17.394-.169c.561-.24 1.096-.52 1.606-.831zm-2-1.765c-3.659-1.747-6-5.438-6-9.519v-.383c0-.552.448-1 1-1h1.528c2.838 0 5.68-.618 8.265-1.793l1.207 1.207v1.97c0 4.081-2.341 7.771-6 9.518zm-16 12.132c0-3.108 2.088-5.877 5.076-6.73l7.537-2.154 3.387 4.517 3.387-4.517 7.537 2.154c2.988.853 5.076 3.622 5.076 6.73v.966h-4v-4h-2v4h-20v-4h-2v4h-4zm56 2.966v22h-58v-22h33.586l-5.46 5.46-1.988 5.962c-.091.278-.138.566-.138.857 0 1.5 1.221 2.721 2.721 2.721.291 0 .579-.047.86-.14l5.959-1.986 10.732-10.732c.487 1.092 1.579 1.858 2.849 1.858.822 0 1.626-.333 2.207-.914l3.086-3.086zm-3.121-6c.618 0 1.121.503 1.121 1.121 0 .295-.119.584-.328.793l-5.758 5.758c-.209.209-.498.328-.793.328-.618 0-1.121-.503-1.121-1.121 0-.295.119-.584.328-.793l5.758-5.758c.209-.209.498-.328.793-.328zm2.172-5.465-4.379 4.379-.672.672-4.586-4.586 5.051-5.051c.612-.612 1.427-.949 2.293-.949 1.788 0 3.242 1.454 3.242 3.242 0 .866-.337 1.681-.949 2.293zm-4.051 17.465v2c1.654 0 3 1.346 3 3h-2c0-.552-.448-1-1-1h-3v1c0 .552.448 1 1 1h2c1.654 0 3 1.346 3 3v3h-3v2h-2v-2c-1.654 0-3-1.346-3-3h2c0 .552.448 1 1 1h3v-1c0-.552-.448-1-1-1h-2c-1.654 0-3-1.346-3-3v-3h3v-2zm-41-4h-10v10h10zm-2 8h-6v-6h6zm-8 10h18v-6h-18zm8-2h-2v-2h2zm2-2h2v2h-2zm6 2h-2v-2h2zm-14-2h2v2h-2zm42 0v2c-.338 0-.497.156-.901.641-.452.541-1.134 1.359-2.437 1.359s-1.985-.818-2.437-1.359c-.404-.485-.563-.641-.901-.641-.337 0-.495.156-.898.641-.451.541-1.133 1.359-2.435 1.359s-1.983-.818-2.435-1.36c-.402-.484-.561-.64-.897-.64s-.495.156-.897.641c-.451.541-1.133 1.359-2.434 1.359s-1.982-.818-2.433-1.36c-.425-.511-.575-.64-.895-.64h-1.849v-2h1.849c1.301 0 1.982.818 2.433 1.36.426.511.575.64.896.64s.471-.129.896-.64c.451-.542 1.133-1.36 2.435-1.36s1.983.818 2.435 1.36c.402.483.562.64.897.64s.495-.156.897-.64c.451-.542 1.133-1.36 2.435-1.36 1.303 0 1.985.818 2.437 1.359.404.485.563.641.901.641s.497-.156.901-.641c.452-.541 1.134-1.359 2.437-1.359zm-32-14h10v2h-10zm0 4h10v2h-10zm4 4h2v2h-2zm4 0h2v2h-2zm-6 2h-2v-2h2z" fill="url(#SVGID_1_)"/></svg>